<?xml version="1.0" encoding="UTF-8"?>
<svg fill="none" viewBox="0 0 152 41" xmlns="http://www.w3.org/2000/svg">
    <path d="m80.018 31.747c-0.9656 0-1.8994 0.2532-2.7701 0.6648-0.5541-0.459-1.3771-0.6648-2.485-0.6648-1.013 0-2.0579 0.1582-3.1184 0.4432v7.9146h1.1079v-7.1548c0.6175-0.1426 1.2981-0.2217 1.8994-0.2217 1.6938 0 2.327 0.6332 2.327 2.1687v5.2078h1.1081v-5.3505c0-0.633-0.0951-1.1553-0.2691-1.567 0.6649-0.2848 1.3771-0.459 2.1052-0.459 1.6305 0 2.3268 0.7598 2.3268 2.2002v5.1763h1.1082v-5.3505c0-1.9151-0.9499-3.0073-3.34-3.0073zm14.481-21.205c-1.239 0-3.0387 0.2572-4.6748 0.6544v11.687h2.5709v-9.9573c0.7013-0.117 1.426-0.1871 2.0338-0.1871 2.5711 0 3.1789 0.8882 3.1789 2.7348v7.4096h2.5713v-7.8537c0-2.8283-1.3793-4.4879-5.6801-4.4879zm-3.6379 24.861h-4.8119c0.1265-1.6462 0.902-2.6908 2.4851-2.6908 1.5671 0 2.3268 1.0605 2.3268 2.6275v0.0633zm-2.2793-3.6564c-2.596 0-3.6568 1.8677-3.6568 4.2263 0 2.7227 1.3932 4.3214 4.0365 4.3214 0.9023 0 1.7254-0.1426 2.5169-0.6016 0.0792-0.3481 0.1426-0.7755 0.1741-1.0606-0.8547 0.4909-1.8046 0.6806-2.6594 0.6806-1.8044 0-2.8015-1.013-2.9439-2.9124h5.8565c0.0476-0.3165 0.0633-0.6489 0.0633-0.9815 0-2.0418-1.013-3.6722-3.3872-3.6722zm-4.1345-11.528c-0.6776 0.5142-1.4959 0.8415-2.5008 0.8415-2.2907 0-3.2492-1.6832-3.2492-4.0672 0-2.6179 1.2389-4.2542 3.9036-4.2542 0.7245 0 1.309 0.0468 1.8464 0.1402v7.3397zm2.5714-9.0227c-1.3557-0.4673-2.7348-0.6544-4.4178-0.6544-4.3243 0-6.5214 2.3374-6.5214 6.4514 0 3.9266 2.0569 6.1706 5.1425 6.1706 1.6361 0 2.6411-0.6544 3.2955-1.6827l0.1404 1.4023h2.3608v-11.687zm6.6915 20.994v7.9146h1.1081v-7.2023c0.5225-0.1107 1.0921-0.1742 1.5515-0.1742 0.4431 0 0.8545 0.0159 1.2186 0.0635 0.0633-0.206 0.1109-0.6175 0.1109-0.9499-0.3482-0.0476-0.8389-0.0633-1.3614-0.0633-0.8547 0-1.9312 0.1742-2.6277 0.4116zm15.212 7.9146h1.108v-8.1678h-1.108v8.1678zm-7.74 0h1.108v-4.9862h4.558c0.048-0.3008 0.095-0.7757 0.111-1.0606h-4.669v-3.8466h4.986c0.063-0.3006 0.111-0.7755 0.127-1.0604h-6.221v10.954zm8.294-10.922c-0.427 0-0.744 0.3169-0.744 0.7442s0.317 0.728 0.744 0.728c0.428 0 0.728-0.3007 0.728-0.728s-0.3-0.7442-0.728-0.7442zm32.197 3.5458c0.522 0 1.155 0.095 1.757 0.3641 0.063-0.3165 0.111-0.633 0.126-0.9655-0.617-0.2691-1.234-0.3799-1.883-0.3799-2.818 0-4.179 1.7095-4.179 4.3054 0 2.7227 1.535 4.2423 3.862 4.2423 0.76 0 1.472-0.1583 2.042-0.5542 0.063-0.3482 0.111-0.7439 0.143-1.0604-0.618 0.4115-1.362 0.633-2.09 0.633-1.63 0-2.833-1.0287-2.833-3.2924 0-2.0736 1.029-3.2924 3.055-3.2924zm8.627 2.6751h-4.812c0.126-1.6462 0.902-2.6908 2.485-2.6908 1.567 0 2.327 1.0605 2.327 2.6275v0.0633zm1.108 0.0158c0-2.0418-1.013-3.6722-3.388-3.6722-2.596 0-3.656 1.8677-3.656 4.2263 0 2.7227 1.393 4.3214 4.036 4.3214 0.902 0 1.726-0.1426 2.517-0.6016 0.079-0.3481 0.143-0.7755 0.174-1.0606-0.855 0.4909-1.804 0.6806-2.659 0.6806-1.805 0-2.802-1.013-2.944-2.9124h5.856c0.048-0.3165 0.064-0.6489 0.064-0.9815zm-19.059-3.6722c-0.886 0-1.915 0.1582-2.976 0.4432v7.9146h1.108v-7.1548c0.602-0.1426 1.267-0.2217 1.837-0.2217 1.947 0 2.501 0.7598 2.501 2.232v5.1445h1.108v-5.3505c0-1.9151-0.902-3.0073-3.578-3.0073zm-21.675-11.575c-0.701 0.5377-1.542 0.8886-2.571 0.8886-2.29 0-3.249-1.6832-3.249-4.0672 0-2.6646 1.216-4.2542 3.763-4.2542 0.678 0 1.379 0.0935 2.057 0.2338v7.199zm2.548-13.65c-0.841 0-1.753 0.0701-2.548 0.35065v3.8568c-0.607-0.117-1.238-0.1871-1.916-0.1871-4.325 0-6.522 2.3374-6.522 6.4514 0 3.9266 2.057 6.1706 5.143 6.1706 1.683 0 2.688-0.6778 3.342-1.7763l0.14 1.4959h2.361v-16.362zm17.859 6.3578c0.631-0.0934 1.262-0.1402 1.893-0.1402 0.725 0 1.333 0.0232 1.94 0.0935 0.141-0.4909 0.234-1.4257 0.234-2.1974-0.561-0.0699-1.449-0.0933-2.244-0.0933-1.449 0-3.296 0.2804-4.394 0.6544v11.687h2.571v-10.004zm-4.969 25.69c-0.522 0.5066-1.187 0.8074-2.01 0.8074-1.725 0-2.611-1.2506-2.611-3.2924 0-2.1212 0.965-3.3559 3.086-3.3559 0.57 0 1.061 0.0635 1.535 0.1899v5.651zm-5.746-2.485c0 2.7068 1.394 4.2105 3.641 4.2105 0.887 0 1.615-0.3325 2.153-0.8074l0.032 0.6175h1.029v-7.9146c-0.839-0.3166-1.662-0.4432-2.644-0.4432-2.833 0-4.211 1.5512-4.211 4.3372zm-5.207-4.3372c-0.887 0-1.916 0.1582-2.976 0.4432v7.9146h1.108v-7.1548c0.601-0.1426 1.266-0.2217 1.836-0.2217 1.947 0 2.501 0.7598 2.501 2.232v5.1445h1.108v-5.3505c0-1.9151-0.902-3.0073-3.577-3.0073zm-70.543-14.753c0-2.6179 1.2389-4.2542 3.9036-4.2542 0.7245 0 1.3088 0.0468 1.8463 0.1402v7.3397c-0.6776 0.5142-1.4959 0.8415-2.5009 0.8415-2.2907 0-3.249-1.6832-3.249-4.0672zm5.8202 4.4879 0.1402 1.4023h2.3608v-11.687c-1.3557-0.4673-2.7348-0.6544-4.4176-0.6544-4.3244 0-6.5216 2.3374-6.5216 6.4514 0 3.9266 2.0569 6.1706 5.1425 6.1706 1.6361 0 2.6411-0.6544 3.2957-1.6827zm-8.5353 17.816c-1.8043 0-2.754-1.1872-2.754-3.3082 0-1.9469 0.9022-3.245 2.754-3.245 1.7889 0 2.7386 1.2029 2.7386 3.2765 0 1.9946-0.9023 3.2767-2.7386 3.2767zm0.0318-7.5504c-2.4534 0-3.9097 1.6462-3.9097 4.3213 0 2.4376 1.2822 4.2264 3.815 4.2264 2.5007 0 3.9254-1.6464 3.9254-4.3532 0-2.4058-1.2664-4.1945-3.8307-4.1945zm-7.1074-1.7571c0.7757 0 1.5355 0.1425 2.1687 0.3798 0.0947-0.2847 0.174-0.6806 0.1899-1.0604-0.6808-0.2691-1.5355-0.38-2.3586-0.38-3.3241 0-5.2394 2.0895-5.2394 5.6986 0 3.4348 1.8203 5.6982 5.1287 5.6982 0.8705 0 1.5827-0.1105 2.2001-0.3322 0.095-0.4116 0.1583-0.7915 0.174-1.1714-0.633 0.285-1.472 0.4432-2.2318 0.4432-2.501 0-4.1155-1.7254-4.1155-4.6854 0-3.0075 1.6145-4.5904 4.0839-4.5904zm-0.5177-9.0696c-1.2858 0-2.9686-0.3036-4.2776-0.9114-0.2572 0.748-0.3974 1.4024-0.4441 2.3608 1.3089 0.6078 2.8749 0.888 4.7916 0.888 3.9737 0 6.0071-1.8464 6.0071-4.5344 0-2.2671-1.2387-3.5996-4.2073-4.8619l-1.2621-0.5374c-1.6362-0.7013-2.5478-1.4026-2.5478-2.6181 0-1.2386 0.9349-2.0335 2.9684-2.0335 1.0752 0 2.5712 0.21029 3.8335 0.67793 0.2336-0.67793 0.3972-1.4026 0.4673-2.3376-1.3322-0.46732-2.758-0.67794-4.2774-0.67794-3.7866 0-5.6331 1.7065-5.6331 4.3711 0 2.4776 1.4959 3.7164 3.6931 4.6749l1.1921 0.5143c2.1972 0.9583 3.0853 1.5893 3.0853 2.945 0 1.3793-1.2154 2.0802-3.389 2.0802zm-16.47-10.074c-0.0371-0.85309-0.2759-1.6997-0.7175-2.4648l-3.8966-6.749c-0.2972-0.51454-0.5025-1.066-0.6165-1.6316l-0.1627 0.28205c-0.9645 1.6704-0.9646 3.7286-2e-4 5.399l3.1173 5.3993c0.9644 1.6704 0.9644 3.7286 0 5.3992l-0.1628 0.282c-0.114-0.5656-0.3193-1.1171-0.6164-1.6316l-2.8538-4.9431-1.8222-3.1559c-0.2971-0.51488-0.50226-1.0662-0.61644-1.6318l-0.16273 0.28204c-0.96114 1.6648-0.96412 3.7145-0.00944 5.3821h-3.4e-4l3.127 5.4162c0.9644 1.6704 0.9644 3.7285 0 5.3991l-0.1629 0.2819c-0.114-0.5654-0.3193-1.1169-0.6165-1.6315l-3.8964-6.7492c-0.52267-0.9051-0.76146-1.9239-0.71771-2.9335-4.1714 1.0898-7.0505 3.4038-7.0505 6.0831 0 3.7272 5.5713 6.7489 12.444 6.7489 6.8725 0 12.444-3.0217 12.444-6.7489 0-2.6795-2.879-4.994-7.0505-6.0839zm103.05 1.8469c1.777 0 2.805 1.1219 2.805 3.0385h-5.797c0.211-1.9869 1.169-3.0385 2.992-3.0385zm0.818 10.472c1.379 0 2.618-0.2105 3.787-0.7481 0.164-0.7712 0.304-1.6593 0.397-2.3372-1.285 0.5843-2.711 0.8881-4.113 0.8881-2.291 0-3.507-1.0049-3.834-3.0853h8.205c0.093-0.6778 0.14-1.2621 0.14-1.9867 0-2.9453-1.59-5.3528-5.259-5.3528-4.091 0-5.704 2.7582-5.704 6.241 0 3.9968 2.081 6.381 6.381 6.381zm-46.774-0.374c0.1402-0.6776 0.2337-1.4726 0.3039-2.1736-0.5609 0.2103-1.2622 0.3504-2.0102 0.3504-1.2388 0-1.9868-0.5842-1.9868-2.1034v-5.727h3.8333c0.117-0.6777 0.1871-1.4024 0.2337-2.1972h-4.067v-4.4176c-0.7948 0-1.7764 0.11683-2.571 0.37402v12.271c0 2.8516 1.5892 3.9969 4.0904 3.9969 0.7245 0 1.4726-0.0933 2.1737-0.374zm-6.5502 15.652c-0.6015 0.5699-1.3613 0.9024-2.2477 0.9024-1.4245 0-2.0893-0.6967-2.0893-2.3428v-5.0653h-1.1082v5.2869c0 2.1052 1.013 3.0709 2.8491 3.0709 1.2031 0 2.0105-0.3008 2.6278-0.9024l0.0316 0.7125h1.0447v-8.1679h-1.108v6.5057zm-4.8571-15.559h2.5713v-7.8537c0-2.8283-1.3791-4.4879-5.6799-4.4879-1.2389 0-3.0387 0.2572-4.6748 0.6544v11.687h2.5711v-9.9573c0.7013-0.117 1.4258-0.1871 2.0336-0.1871 2.5711 0 3.1787 0.8882 3.1787 2.7348v7.4096zm-13.125 8.8631c-0.8862 0-1.9151 0.1582-2.9757 0.4432v7.9146h1.108v-7.1548c0.6017-0.1426 1.2664-0.2217 1.8363-0.2217 1.9469 0 2.5011 0.7598 2.5011 2.232v5.1445h1.1078v-5.3505c0-1.9151-0.9022-3.0073-3.5775-3.0073zm8.8011 3.8623-0.7439-0.2534c-0.9813-0.3324-1.5988-0.6016-1.5988-1.4878 0-0.7757 0.6175-1.1714 1.8361-1.1714 0.7759 0 1.5831 0.1266 2.3113 0.3957 0.0949-0.3165 0.1425-0.6649 0.1582-0.934-0.7281-0.2848-1.5829-0.4114-2.5009-0.4114-1.7888 0-2.8651 0.7438-2.8651 2.1526 0 1.2665 0.7756 1.9788 2.1843 2.4062l0.7281 0.2215c0.76 0.2375 1.6307 0.5699 1.6307 1.5196 0 0.9023-0.7442 1.2821-1.9631 1.2821-0.8072 0-1.8361-0.19-2.58-0.6172-0.0792 0.2215-0.1427 0.5223-0.1584 0.9654 0.744 0.4276 1.6623 0.6175 2.7701 0.6175 1.8996 0 3.0075-0.8389 3.0075-2.2794 0-1.3771-0.9654-1.9787-2.2161-2.406" fill="#EC0000"/>
</svg>